<svg data-name="Layer 1" xmlns="http://www.w3.org/2000/svg" viewBox="0 0 118.47 118.47"><title>icon-logo</title><path d="M59.24 0a59.24 59.24 0 1 0 59.24 59.24A59.24 59.24 0 0 0 59.24 0zm40.54 91.45h-4.41V29.86h4.41v61.59zm13.35-32.22a53.55 53.55 0 0 1-9 29.82V29.42a53.55 53.55 0 0 1 8.97 29.82zM59.27 5.37a53.77 53.77 0 0 1 41.9 20.08h-24.5L61.93 52.21 47.19 25.45H17.33A53.77 53.77 0 0 1 59.24 5.38zm31.77 24.49v61.59h-4.32V29.86h4.32zm-8.64 0v61.59h-4.32V29.86h4.32zm-63.1 0h4.79l30 54.17-2.52 4.57zm5.48 18.93V91.3h-4.32V41.16zm4.68-18.93h4.88l24.93 45.06-2.65 4.62zm10 0h5.11l19.64 35.85-2.56 4.64zM64.19 56.3l9.56-18v9.2l-7.07 13.3zM14.1 29.9l2 3.54v58a53.72 53.72 0 0 1-2-61.54zm45.14 83.2a53.72 53.72 0 0 1-39.46-17.23h9.53V57.68l22.16 40.26 22.31-40.38v38.31h24.9a53.72 53.72 0 0 1-39.44 17.23z"/></svg>