<svg data-name="Layer 1" xmlns="http://www.w3.org/2000/svg" viewBox="0 0 58 57.97"><title>icon-how-1</title><path data-name="Forma 1" d="M10.28 18.74H7.41a1 1 0 0 0 0 1.91h2.87a1 1 0 1 0 0-1.91zm0 15.88H7.41a1 1 0 1 0 0 1.91h2.87a1 1 0 0 0 .65-1.22 1.09 1.09 0 0 0-.65-.69zm0 15.65H7.41a1 1 0 0 0 0 1.91h2.87a1 1 0 0 0 0-1.91zm37.58-5.79H4.32A4.34 4.34 0 0 0 0 48.85v4.76a4.34 4.34 0 0 0 4.32 4.36h43.54a4.34 4.34 0 0 0 4.31-4.36v-4.76a4.34 4.34 0 0 0-4.31-4.37zm2.43 9.12a2.44 2.44 0 0 1-2.43 2.45H4.32a2.44 2.44 0 0 1-2.43-2.45v-4.75a2.44 2.44 0 0 1 2.43-2.45h43.54a2.44 2.44 0 0 1 2.43 2.45v4.76zm6.77-36.23h-3.38v-5.52a11.746 11.746 0 0 0-23.49-.22v1.34H4.32A4.34 4.34 0 0 0 0 17.31v4.76a4.34 4.34 0 0 0 4.32 4.36h21.55v2.4H4.32A4.34 4.34 0 0 0 0 33.19v4.78a4.34 4.34 0 0 0 4.32 4.36h43.54a4.34 4.34 0 0 0 4.32-4.36v-.9h1.11A4.74 4.74 0 0 0 58 32.29v-14a1 1 0 0 0-.94-1zM41.94 1.88a9.93 9.93 0 0 1 9.86 10v5.49h-2.87v-5.11a7.004 7.004 0 1 0-14-.5v5.61h-2.85v-5.52a9.93 9.93 0 0 1 9.86-10zM47 17.38H36.83v-5.12A5.11 5.11 0 0 1 47 12.12v5.25zM4.32 24.52a2.44 2.44 0 0 1-2.43-2.45v-4.76a2.45 2.45 0 0 1 2.43-2.46h25.87v2.52h-3.37a1 1 0 0 0-.94 1v6.19H4.32zm45.97 13.45a2.44 2.44 0 0 1-2.43 2.45H4.32a2.44 2.44 0 0 1-2.43-2.45v-4.78a2.44 2.44 0 0 1 2.43-2.45h21.55v1.55a4.74 4.74 0 0 0 4.71 4.76h19.71v.92zm5.82-5.66a2.84 2.84 0 0 1-2.82 2.86H30.58a2.84 2.84 0 0 1-2.82-2.86v-13h28.35v13zm-14.17-8.23a1 1 0 0 0-.94 1v4.37a.945.945 0 1 0 1.89.06v-4.48a1 1 0 0 0-.94-1z"/></svg>