<svg data-name="Layer 1" xmlns="http://www.w3.org/2000/svg" viewBox="0 0 60 60"><title>icon-how-2</title><path data-name="Forma 1" d="M49.55 0h-39.1L0 16.71V60h60V16.71zm7.65 16H31V2h17.45zM11.55 2H29v14H2.8zM2 58V18h56v40H2zm34-35H24a3 3 0 0 0 0 6h12a3 3 0 0 0 0-6zm0 4H24a1 1 0 0 1 0-2h12a1 1 0 0 1 0 2zm2 25H22a1 1 0 0 0 0 2h16a1 1 0 0 0 0-2zm-13-2a1 1 0 0 0 1-1v-6.59l1.29 1.29a1 1 0 0 0 1.41-1.41l-3-3a1 1 0 0 0-1.42 0l-3 3a1 1 0 0 0 1.39 1.44L24 42.41V49a1 1 0 0 0 1 1zm10.71-10.71a1 1 0 0 0-1.42 0l-3 3a1 1 0 0 0 1.39 1.44L34 42.41V49a1 1 0 0 0 2 0v-6.59l1.29 1.29a1 1 0 0 0 1.41-1.41z"/></svg>