<svg data-name="Layer 1" xmlns="http://www.w3.org/2000/svg" viewBox="0 0 24 17.99"><title>icon-up</title><path data-name="Forma 1" d="M10.81.51L.49 11.07a1.77 1.77 0 0 0 0 2.44 1.66 1.66 0 0 0 2.35 0l9.17-9.35 9.13 9.35a1.66 1.66 0 0 0 2.35 0 1.77 1.77 0 0 0 0-2.44L13.19.51a1.64 1.64 0 0 0-2.32-.06z"/><path data-name="Forma 1 копия" d="M11.22 8.37L4.34 15.9a1.31 1.31 0 0 0 0 1.74 1.07 1.07 0 0 0 1.52.07l.07-.07 6.08-6.65 6.09 6.66a1 1 0 0 0 1.48.1l.1-.1a1.3 1.3 0 0 0 0-1.73L12.8 8.37a1 1 0 0 0-.79-.38 1.08 1.08 0 0 0-.79.38z"/></svg>