<svg data-name="Layer 1" xmlns="http://www.w3.org/2000/svg" viewBox="0 0 14 10"><title>icon-mail</title><path data-name="Forma 1" d="M11.34 7.72a.22.22 0 0 1-.15-.06L8.58 5.21a.23.23 0 0 1 0-.32.22.22 0 0 1 .32 0l2.6 2.45a.23.23 0 0 1-.16.38zm-8.67 0a.23.23 0 0 1-.16-.39l2.6-2.45a.23.23 0 1 1 .31.33l-2.6 2.45a.22.22 0 0 1-.16.06zM12.87 10H1.13A1.13 1.13 0 0 1 0 8.87V1.13A1.13 1.13 0 0 1 1.13 0h11.74A1.13 1.13 0 0 1 14 1.13v7.74A1.13 1.13 0 0 1 12.87 10zM1.13.45a.68.68 0 0 0-.68.68v7.73a.68.68 0 0 0 .68.68h11.74a.68.68 0 0 0 .68-.68V1.13a.68.68 0 0 0-.68-.68H1.13zM7 6.14a1.26 1.26 0 0 1-.83-.3L.37.76a.23.23 0 0 1 0-.32.23.23 0 0 1 .32 0L6.47 5.5a.84.84 0 0 0 1.06 0L13.32.43a.23.23 0 0 1 .32 0 .23.23 0 0 1 0 .32L7.83 5.84a1.26 1.26 0 0 1-.83.3z"/></svg>