<svg data-name="Layer 1" xmlns="http://www.w3.org/2000/svg" viewBox="0 0 59.01 56"><title>icon-how-3</title><path data-name="Forma 1" d="M1 2.08h57A1.04 1.04 0 0 0 58 0H1a1.04 1.04 0 0 0 0 2.08zM58 6.5H1a1.04 1.04 0 0 0 0 2.08h57a1.04 1.04 0 0 0 0-2.08zm0 6.5H1a1.04 1.04 0 0 0 0 2.08h57A1.04 1.04 0 1 0 58 13zm1 7.54a1 1 0 0 0-1-1H43a12.5 12.5 0 0 0-14.71-1.7A12.14 12.14 0 0 0 26 19.5H1a1.04 1.04 0 0 0 0 2.08h23.23A12.68 12.68 0 0 0 22.32 26H1a1.04 1.04 0 0 0 0 2.08h21a12.39 12.39 0 0 0 .59 4.42H1a1.04 1.04 0 0 0 0 2.08h22.53l.15.28a12.54 12.54 0 0 0 10.87 6.3 12.25 12.25 0 0 0 3.37-.47l7.89 13.79A3 3 0 0 0 48.44 56a3 3 0 0 0 1.49-.4 3 3 0 0 0 1.13-4.13l-7.89-13.78a12.3 12.3 0 0 0 2.36-3.1H58a1.04 1.04 0 0 0 0-2.08H46.41c.06-.18.12-.37.17-.56a12.36 12.36 0 0 0 .42-3.86h11A1.045 1.045 0 0 0 58 26H46.74a12.67 12.67 0 0 0-1.37-3.55q-.25-.45-.54-.86H58a1 1 0 0 0 1-1zm-9.75 32a.945.945 0 0 1-1.64.94L39.9 39.94c.28-.14.56-.28.83-.44s.54-.33.8-.5zm-4.68-21.15a10.43 10.43 0 1 1-7.31-12.79 10.4 10.4 0 0 1 7.31 12.79zM37 19.68A9.31 9.31 0 1 0 42.6 24a9.31 9.31 0 0 0-5.6-4.32zm-6 2.71a7.21 7.21 0 0 1 10.79 5.93H27.31a7.58 7.58 0 0 1 .25-1.56 7.2 7.2 0 0 1 3.38-4.37zm7.17 12.54a7.22 7.22 0 0 1-9.85-2.68 7.46 7.46 0 0 1-.74-1.84h14a7.2 7.2 0 0 1-3.42 4.52z"/></svg>