<svg data-name="Layer 1" xmlns="http://www.w3.org/2000/svg" viewBox="0 0 15 15"><title>icon-call</title><path data-name="Forma 1" d="M15 12.35a1.17 1.17 0 0 0-.57-.85l-3.7-2.13a1.16 1.16 0 0 0-1.4.19l-.73.73a.53.53 0 0 1-.71 0A20 20 0 0 1 6.2 8.81c-.54-.55-1.05-1.11-1.52-1.69a.54.54 0 0 1 0-.71l.73-.73a1.16 1.16 0 0 0 .19-1.4L3.51.58A1.16 1.16 0 0 0 1.68.34l-1.1 1.1c-.76.77-.77 2.17 0 3.95a17.32 17.32 0 0 0 3.76 5.3 17.45 17.45 0 0 0 5.3 3.76 6.2 6.2 0 0 0 2.33.55 2.21 2.21 0 0 0 1.62-.58l1.1-1.1a1.14 1.14 0 0 0 .31-.97zm-4.52-2.57l3.7 2.13a.68.68 0 0 1 .33.5.65.65 0 0 1-.13.49l-4.92-2.8.2-.2a.69.69 0 0 1 .82-.12zM2.59.49a.68.68 0 0 1 .5.33l2.13 3.7a.68.68 0 0 1-.11.81l-.18.18L2.1.62a.69.69 0 0 1 .4-.13h.09zm10.63 13.58c-.61.61-1.86.58-3.42-.07a17.06 17.06 0 0 1-5.15-3.65A17 17 0 0 1 1 5.2C.34 3.64.32 2.39.93 1.78L1.74 1l2.83 4.88-.19.19a1 1 0 0 0-.07 1.36 21.43 21.43 0 0 0 1.54 1.72 22.4 22.4 0 0 0 1.72 1.55 1 1 0 0 0 1.37-.08l.17-.17L14 13.26z"/></svg>